# xmcd CD database file
#
# Track frame offsets:
#	150
#	31546
#	53590
#	77905
#	103533
#	126698
#	153899
#	177015
#	202105
#	223155
#
# Disc length: 3241 seconds
#
# Revision: 2
# Processed by: cddbd v1.5.2PL0 Copyright (c) Steve Scherf et al.
# Submitted via: CDex 1.76
#
DISCID=830ca70a
DTITLE=Jasper Johannson-Lina Bostrom - Wellness - Relaxing Paradise CD 3
DYEAR=2007
DGENRE=New Age
TTITLE0=Summer rain - Jasper Johannson
TTITLE1=A relief - Lina Bostrom
TTITLE2=Falls of eden - Jasper Johannson
TTITLE3=Overwhelming life - Lina Bostrom
TTITLE4=Echoes of silence -  Jasper Johannson
TTITLE5=Living water - Jasper Johannson
TTITLE6=Green grass - Lina Bostrom
TTITLE7=The brook -  Jasper Johannson
TTITLE8=Cold eve - Lina Bostrom
TTITLE9=Fresh wellspring - Lina Bostrom
EXTD=YEAR: 2007
EXTT0=
EXTT1=
EXTT2=
EXTT3=
EXTT4=
EXTT5=
EXTT6=
EXTT7=
EXTT8=
EXTT9=
PLAYORDER=
